<?xml version="1.0" encoding="utf-8"?>
<!-- Generator: Adobe Illustrator 25.0.1, SVG Export Plug-In . SVG Version: 6.00 Build 0)  -->
<svg version="1.1" id="Livello_1" xmlns="http://www.w3.org/2000/svg" xmlns:xlink="http://www.w3.org/1999/xlink" x="0px" y="0px"
	 viewBox="0 0 628.1 172.6" style="enable-background:new 0 0 628.1 172.6;" xml:space="preserve">
<style type="text/css">
	.st0{fill:#020203;}
</style>
<g>
	<g>
		<path d="M24.7,121L63.6,12.8H45.4l0.6-2.2h49.1l-0.6,2.2H77.9L39.1,121h18l-0.6,2.2H7.9l0.6-2.2H24.7z"/>
		<path d="M90.4,57.5l0.6-2.2h25l-6.5,19.5h0.3c10.2-13.6,19.9-20.4,29-20.4c4.4,0,7.9,1.2,10.5,3.6c2.6,2.4,3.9,5.3,3.9,8.8
			c0,1.8-0.3,3.6-0.9,5.3c-0.6,1.7-1.3,3.8-2.1,6.3l-10.3,29.3c-0.6,1.8-1.2,3.6-1.7,5.3s-0.8,3.5-0.8,5.1c0,1.3,0.3,2.4,0.8,3.5
			s1.6,1.6,3.3,1.6c1.9,0,3.6-0.5,5.2-1.6c1.6-1.1,3-2.3,4.4-3.8c1.3-1.5,2.5-3,3.4-4.7c0.9-1.6,1.7-3,2.2-4.2l1.7,0.8
			c-0.5,1.1-1.3,2.5-2.2,4.2s-2.2,3.5-3.7,5.1c-1.5,1.7-3.4,3.1-5.6,4.4c-2.2,1.2-4.9,1.8-7.9,1.8c-3.4,0-6.2-0.7-8.5-2.2
			s-3.5-3.9-3.5-7.3c0-1.4,0.2-2.8,0.6-4.3c0.4-1.5,0.8-3.1,1.3-4.7l13.3-37.8c0.8-2.5,1.3-4.6,1.3-6.3c0-1.4-0.5-2.7-1.3-4
			c-0.9-1.3-2.5-1.9-4.8-1.9s-5,0.9-8.1,2.6c-3.1,1.7-6.1,4.1-9.2,7.1c-3.1,3-5.9,6.5-8.6,10.6c-2.7,4.1-4.9,8.5-6.6,13.2L93,123.3
			H82.1l22.8-65.7H90.4V57.5z"/>
		<path d="M220,121.6c4,2.6,5.9,7,5.9,13.1c0,3.6-0.9,7.4-2.7,11.4c-1.8,4-4.4,7.7-7.8,11.2c-3.4,3.4-7.5,6.3-12.4,8.5
			c-4.9,2.2-10.5,3.3-16.9,3.3c-4.1,0-8-0.6-11.7-1.7s-6.9-2.6-9.7-4.4c-2.8-1.8-5-3.9-6.6-6.3c-1.6-2.4-2.4-4.9-2.4-7.4
			s0.6-4.9,1.8-7.1c1.2-2.2,2.7-4.2,4.4-6.1c1.7-1.8,3.5-3.4,5.3-4.7s3.4-2.3,4.7-3.1l4.4-2.4c-1.1-0.3-2.2-0.7-3.6-1.1
			c-1.3-0.4-2.6-1.1-3.8-1.9c-1.2-0.8-2.2-2-3-3.5s-1.2-3.4-1.2-5.9c0-3.3,0.8-6.2,2.5-8.8s4.5-4.9,8.5-7l5.9-3.2
			c-1.4-1.6-2.5-3.3-3.4-5.1s-1.3-4.2-1.3-7.2c0-3.8,1-7.4,3-10.9s4.6-6.6,7.8-9.3c3.2-2.7,6.6-4.8,10.4-6.4
			c3.8-1.6,7.5-2.4,11.1-2.4c2.7,0,5.1,0.3,7.2,0.9c2.1,0.6,3.9,1.5,5.5,2.5s2.9,2.1,4,3.2c1.1,1.2,1.9,2.3,2.5,3.3
			c1.3-1.9,2.8-3.8,4.6-5.6c1.8-1.8,4.3-2.8,7.6-2.8c2.7,0,5.1,0.9,7.2,2.8c2.1,1.9,3.1,4.2,3.1,7c0,1.9-0.5,3.5-1.6,4.7
			s-2.8,1.8-5.2,1.8c-1.5,0-2.7-0.4-3.7-1.1c-1-0.7-1.5-1.7-1.5-2.8c0-0.9,0.2-1.7,0.5-2.2s0.7-1,1.1-1.4s0.8-0.9,1.1-1.5
			c0.3-0.6,0.5-1.4,0.5-2.5c0-0.6-0.3-1.2-0.8-1.7S240,57,239.1,57c-1.7,0-3.4,0.8-5,2.4c-1.6,1.6-3,3.6-4.2,6
			c0.6,0.8,1.2,2.1,1.7,3.7c0.5,1.6,0.7,3.1,0.7,4.5c0,3.4-1,6.7-2.9,10c-2,3.3-4.5,6.2-7.6,8.9c-3.1,2.6-6.5,4.7-10.2,6.3
			s-7.3,2.4-10.8,2.4c-4.9,0-8.6-0.6-11.2-1.8s-4.6-2.2-5.9-3.1l-3.3,1.6c-3.4,1.6-5.9,3.4-7.7,5.3c-1.7,2-2.6,3.9-2.6,5.8
			c0,2.3,1.1,4,3.4,5.1s5.9,1.8,11,2.1l20.3,0.9C211,117.5,216.1,119,220,121.6z M168.5,137.7c-1.5,2.9-2.2,6.6-2.2,11
			c0,3.4,0.6,6.2,1.7,8.5c1.1,2.3,2.6,4.1,4.4,5.6s4,2.5,6.3,3.2c2.4,0.6,4.8,0.9,7.2,0.9c4.5,0,8.8-0.8,12.9-2.3s7.6-3.5,10.8-5.9
			c3.1-2.4,5.6-5.2,7.4-8.4s2.7-6.4,2.7-9.8c0-1.7-0.3-3.3-0.9-4.8s-1.6-2.9-2.9-4.1c-1.4-1.2-3.2-2.2-5.5-3s-5.2-1.2-8.5-1.3
			l-22.3-0.8l-4.4,3.5C172.2,132.1,170,134.8,168.5,137.7z M191.5,96.2c2.2,1.8,5.3,2.8,9.3,2.8c3.5,0,6.5-1.1,9.1-3.2
			c2.6-2.1,4.7-4.7,6.4-7.8c1.7-3.1,2.9-6.5,3.7-10.1c0.8-3.6,1.2-7,1.2-10c0-4.6-1.2-7.9-3.6-9.7s-5.3-2.7-8.8-2.7
			c-3.3,0-6.2,1.1-8.7,3.2c-2.5,2.2-4.7,4.8-6.5,7.8c-1.8,3.1-3.2,6.3-4.1,9.8s-1.4,6.6-1.4,9.3C188.1,90.8,189.3,94.4,191.5,96.2z"
			/>
		<path d="M263.9,108.9c-0.5,1.6-1.1,3.2-1.6,4.8s-0.8,3.2-0.8,4.7c0,1.3,0.4,2.3,1.1,3.2s1.8,1.3,3.3,1.3c1.7,0,3.3-0.6,5-1.7
			c1.6-1.2,3.1-2.5,4.5-4s2.5-3.1,3.5-4.7c0.9-1.6,1.6-2.8,2.1-3.8l1.9,0.8c-0.4,0.8-1.1,2.1-2,3.9c-0.9,1.7-2.1,3.5-3.7,5.2
			s-3.5,3.2-5.9,4.5c-2.3,1.3-5.1,1.9-8.2,1.9c-3.5,0-6.3-0.7-8.3-2.1c-2.1-1.4-3.1-3.8-3.1-7.2c0-1.8,0.3-3.8,1-5.9
			c0.6-2.2,1.3-4.1,1.9-5.9l35.3-98.7h-14.1l0.6-2.2h25.2L263.9,108.9z"/>
		<path d="M343.5,111.7c-1.3,2-3,3.9-5.2,5.9s-4.9,3.7-8.1,5.2s-7.1,2.3-11.6,2.3s-8.4-0.7-11.5-2.2s-5.6-3.4-7.6-5.7
			s-3.4-4.9-4.3-7.7s-1.3-5.5-1.3-8.1c0-5.3,1.3-10.7,3.9-16.4c2.6-5.6,6-10.8,10.1-15.5c4.2-4.7,8.9-8.6,14.2-11.6
			c5.3-3.1,10.7-4.6,16.1-4.6c2.1,0,4.2,0.2,6.3,0.7c2.1,0.5,4,1.2,5.7,2.1c1.7,0.9,3.1,2.2,4.1,3.6c1.1,1.5,1.6,3.3,1.6,5.4
			c0,2.8-0.8,5.4-2.3,7.5c-1.5,2.2-3.5,4-5.9,5.5s-5.1,2.8-8,3.9c-2.9,1.1-5.7,1.9-8.5,2.5c-2.7,0.6-5.2,1-7.5,1.3s-3.9,0.4-5,0.4
			c-1.8,0-3.5-0.1-5.2-0.2c-1.7-0.1-3.2-0.3-4.4-0.5c-1.2,3.4-2.1,6.7-2.9,10s-1.2,6.8-1.2,10.5c0,5.7,1.5,9.9,4.4,12.7
			c3,2.8,6.7,4.2,11.2,4.2c3.4,0,6.4-0.7,8.9-2c2.6-1.3,4.9-2.9,6.8-4.7c2-1.8,3.6-3.6,4.9-5.5c1.3-1.8,2.4-3.3,3.2-4.4l1.9,1.1
			C345.7,108.4,344.8,109.8,343.5,111.7z M344.2,57.7c-1.3-1.5-3.4-2.2-6.3-2.2c-3.3,0-6.4,0.9-9.4,2.8c-3,1.9-5.7,4.2-8.1,7
			c-2.4,2.8-4.5,5.8-6.3,9s-3.2,6.2-4.1,8.9c2.4,0.4,5.1,0.6,8.1,0.6c3.8,0,7.4-0.6,10.8-1.7c3.4-1.2,6.4-2.7,8.9-4.6
			c2.6-1.9,4.6-4.1,6.2-6.6c1.5-2.5,2.3-5.2,2.3-7.9C346.1,60.9,345.4,59.1,344.2,57.7z"/>
		<path d="M373,81.8c-1.3-2.1-2-4.5-2-7.4c0-2.4,0.6-4.9,1.9-7.4s3-4.8,5.2-6.9c2.2-2.1,4.9-3.7,8-5s6.5-1.9,10-1.9
			c4.4,0,8,1,10.7,2.9c2.7,2,4,4.5,4,7.5c0,4.4-2.2,6.6-6.5,6.6c-1.5,0-2.8-0.4-3.9-1.3c-1.1-0.8-1.7-2.1-1.7-3.6
			c0-1.5,0.3-2.6,1-3.2c0.7-0.7,1-1.6,1-2.6c0-2.7-1.8-4.1-5.4-4.1c-2.5,0-4.7,0.4-6.6,1.1c-1.8,0.7-3.4,1.7-4.6,3s-2.1,2.7-2.7,4.3
			c-0.6,1.6-0.9,3.2-0.9,4.7c0,2.1,0.5,4.1,1.6,5.9c1.1,1.8,2.5,4,4.4,6.6l9.3,12.2c1.3,1.6,2.1,3.2,2.6,5c0.5,1.7,0.7,3.5,0.7,5.3
			c0,3.6-0.9,6.7-2.7,9.4c-1.8,2.7-4,4.9-6.7,6.7s-5.6,3.1-8.7,4s-6,1.3-8.8,1.3c-2.4,0-4.7-0.3-7-0.8c-2.2-0.5-4.2-1.3-5.9-2.3
			c-1.7-1-3.1-2.3-4.2-3.8s-1.6-3.3-1.6-5.3c0-2.4,0.8-4.2,2.3-5.5c1.5-1.2,3.5-1.8,5.8-1.8c0.9,0,1.8,0.3,2.6,1
			c0.8,0.7,1.2,1.5,1.2,2.5c0,1.3-0.3,2.5-0.8,3.6s-0.8,2.3-0.8,3.6c0,2.5,0.8,4.3,2.5,5.3c1.6,1,3.8,1.5,6.4,1.5s5-0.4,7-1.3
			c2.1-0.8,3.8-1.9,5.2-3.2c1.4-1.3,2.5-2.7,3.2-4.3s1.1-3.1,1.1-4.4c0-2.1-0.3-4-1-5.7s-1.8-3.6-3.4-5.7l-7.9-10.4
			C375.8,85.9,374.4,83.9,373,81.8z"/>
		<path d="M423.9,57.5l0.6-2.2h25.2L431,108.9c-0.5,1.6-1.1,3.2-1.6,4.8s-0.8,3.2-0.8,4.7c0,1.3,0.4,2.3,1.1,3.2
			c0.7,0.9,1.8,1.3,3.3,1.3c1.7,0,3.3-0.6,5-1.7c1.6-1.2,3.1-2.5,4.5-4s2.5-3.1,3.5-4.7c0.9-1.6,1.6-2.8,2.1-3.8l1.9,0.8
			c-0.4,0.8-1.1,2.1-2,3.9c-0.9,1.7-2.1,3.5-3.7,5.2c-1.6,1.7-3.5,3.2-5.9,4.5c-2.3,1.3-5.1,1.9-8.2,1.9c-3.5,0-6.3-0.7-8.3-2.1
			c-2.1-1.4-3.1-3.8-3.1-7.2c0-1.8,0.3-3.8,1-5.9c0.6-2.2,1.3-4.1,1.9-5.9L438,57.5L423.9,57.5L423.9,57.5z M449.9,12.7
			c1.4-1.4,3.2-2.1,5.3-2.1s3.9,0.7,5.3,2.1c1.4,1.4,2.1,3.2,2.1,5.3c0,2.1-0.7,3.9-2.1,5.3c-1.4,1.4-3.2,2.1-5.3,2.1
			s-3.9-0.7-5.3-2.1c-1.4-1.4-2.1-3.2-2.1-5.3C447.8,15.8,448.5,14.1,449.9,12.7z"/>
		<path d="M468.5,57.5l0.6-2.2h25l-6.5,19.5h0.3c10.2-13.6,19.9-20.4,29-20.4c4.4,0,7.9,1.2,10.5,3.6c2.6,2.4,3.9,5.3,3.9,8.8
			c0,1.8-0.3,3.6-0.9,5.3c-0.6,1.7-1.3,3.8-2.1,6.3l-10.2,29.1c-0.6,1.8-1.2,3.6-1.7,5.3s-0.8,3.5-0.8,5.1c0,1.3,0.3,2.4,0.8,3.5
			s1.6,1.6,3.3,1.6c1.9,0,3.6-0.5,5.2-1.6c1.6-1.1,3-2.3,4.4-3.8c1.3-1.5,2.5-3,3.4-4.7c0.9-1.6,1.7-3,2.2-4.2l1.7,0.8
			c-0.5,1.1-1.3,2.5-2.2,4.2s-2.2,3.5-3.7,5.1c-1.5,1.7-3.4,3.1-5.6,4.4c-2.2,1.2-4.9,1.8-7.9,1.8c-3.4,0-6.2-0.7-8.5-2.2
			s-3.5-3.9-3.5-7.3c0-1.4,0.2-2.8,0.6-4.3c0.4-1.5,0.8-3.1,1.3-4.7l13.3-37.8c0.8-2.5,1.3-4.6,1.3-6.3c0-1.4-0.5-2.7-1.3-4
			c-0.9-1.3-2.5-1.9-4.8-1.9s-5,0.9-8.1,2.6c-3.1,1.7-6.1,4.1-9.2,7.1c-3.1,3-5.9,6.5-8.6,10.6c-2.7,4.1-4.9,8.5-6.6,13.2l-12,33.2
			h-11l22.8-65.7H468.5z"/>
		<path d="M600.6,111.2c-0.7,2.5-1,4.8-1,6.8c0,2.7,1.3,4.1,4,4.1c2.1,0,4-0.6,5.7-1.8s3.1-2.6,4.4-4.1c1.2-1.5,2.2-3.1,3-4.6
			s1.3-2.6,1.7-3.2l2.1,1.1c-0.5,1.2-1.3,2.6-2.4,4.4c-1.1,1.8-2.4,3.5-4.1,5.1c-1.7,1.6-3.6,3.1-5.9,4.3c-2.2,1.2-4.8,1.8-7.8,1.8
			c-7,0-10.4-3.2-10.4-9.5c0-0.7,0.2-2,0.5-3.9c0.3-1.8,0.7-3.5,1.3-5h-0.3c-1.5,1.8-3.2,3.8-5.1,5.9c-1.9,2.2-4,4.2-6.4,6
			s-5,3.4-7.8,4.6c-2.8,1.2-6,1.8-9.5,1.8c-2.2,0-4.4-0.4-6.4-1.2c-2.1-0.8-3.9-2-5.5-3.6s-2.8-3.7-3.7-6.3c-0.9-2.5-1.3-5.5-1.3-9
			c0-4.2,0.8-8.4,2.5-12.7c1.7-4.2,3.9-8.3,6.6-12.1c2.7-3.8,5.8-7.4,9.3-10.7s7.1-6.1,10.8-8.5c3.6-2.4,7.2-4.3,10.8-5.7
			c3.5-1.4,6.7-2.1,9.4-2.1c3.2,0,5.9,0.9,8.1,2.7c2.2,1.8,3.3,4.2,3.3,7.1h0.3l2.7-7.8h11.1L603.4,103
			C602.1,106,601.3,108.6,600.6,111.2z M604.2,68.8c0.4-1.4,0.6-2.7,0.6-3.7c0-0.9-0.1-2-0.4-3.1c-0.3-1.1-0.7-2.1-1.4-3.1
			c-0.7-0.9-1.6-1.8-2.8-2.5s-2.7-1-4.6-1c-3.5,0-6.9,1-10.2,2.9c-3.3,2-6.4,4.5-9.3,7.7c-2.9,3.2-5.6,6.8-8,10.8
			c-2.4,4.1-4.5,8.2-6.2,12.3c-1.7,4.2-3.1,8.2-4,12.1c-0.9,3.9-1.4,7.3-1.4,10.3c0,3.4,0.7,6.1,2,8.2c1.3,2.1,3.5,3.2,6.6,3.2
			s6.2-0.9,9.3-2.8c3.2-1.9,6.1-4.2,8.7-6.8c2.6-2.6,4.9-5.3,6.8-7.9c1.9-2.6,3.1-4.7,3.6-6.2l8.4-23.3
			C603,72.7,603.8,70.2,604.2,68.8z"/>
	</g>
	<g>
		<g>
			<rect x="46.8" y="29.5" width="129.2" height="0.9"/>
		</g>
	</g>
	<g>
		<g>
			<rect x="171.8" y="45.8" transform="matrix(0.2737 -0.9618 0.9618 0.2737 110.4986 238.9274)" width="83.3" height="0.9"/>
		</g>
	</g>
	<g>
		<g>
			<rect x="544.1" y="69.5" transform="matrix(0.2737 -0.9618 0.9618 0.2737 358.1509 614.2126)" width="83.3" height="0.9"/>
		</g>
	</g>
	<g>
		<g>
			<rect x="332.8" y="91.7" width="129.2" height="0.9"/>
		</g>
	</g>
	<g>
		<path class="st0" d="M255.9,146.4l-4.1,23.3h-2.6l4.1-23.3L255.9,146.4L255.9,146.4z"/>
		<path class="st0" d="M291.7,169.7H289l3.7-20.9h-7.8l0.4-2.4h18.3l-0.4,2.4h-7.8L291.7,169.7z"/>
		<path class="st0" d="M347.4,169.7h-2.8l-1.6-6.2h-12.7l-3.9,6.2h-2.7l14.8-23.5h2.5L347.4,169.7z M339.1,149.3l-7.4,11.9h10.6
			L339.1,149.3z"/>
		<path class="st0" d="M380.4,146.4h2.6l-3.7,20.9h13.1l-0.4,2.4h-15.7L380.4,146.4z"/>
		<path class="st0" d="M428.1,146.4l-4.1,23.3h-2.6l4.1-23.3L428.1,146.4L428.1,146.4z"/>
		<path class="st0" d="M476.7,169.7h-2.8l-1.6-6.2h-12.7l-3.9,6.2H453l14.8-23.5h2.5L476.7,169.7z M468.5,149.3l-7.4,11.9h10.6
			L468.5,149.3z"/>
		<path class="st0" d="M526.8,146.4h2.6l-4.1,23.3h-2.1l-11.7-19.1l-3.4,19.1h-2.6l4.1-23.3h2.5l11.4,18.7L526.8,146.4z"/>
		<path class="st0" d="M577.8,169.7H575l-1.6-6.2h-12.7l-3.9,6.2h-2.7l14.8-23.5h2.5L577.8,169.7z M569.6,149.3l-7.4,11.9h10.6
			L569.6,149.3z"/>
	</g>
</g>
</svg>
